<svg id="ui_1_" data-name="ui (1)" xmlns="http://www.w3.org/2000/svg" width="125.715" height="125.715" viewBox="0 0 125.715 125.715">
  <path id="Path_19" data-name="Path 19" d="M62.858,0a62.858,62.858,0,1,0,62.858,62.858A62.927,62.927,0,0,0,62.858,0Zm0,0" fill="#587f9e"/>
  <path id="Path_20" data-name="Path 20" d="M182.906,160.644H160.644v22.262a5.238,5.238,0,1,1-10.476,0V160.644H127.906a5.238,5.238,0,0,1,0-10.476h22.262V127.906a5.238,5.238,0,0,1,10.476,0v22.262h22.262a5.238,5.238,0,1,1,0,10.476Zm0,0" transform="translate(-92.548 -92.548)" fill="#fafafa"/>
</svg>
