<svg id="link" xmlns="http://www.w3.org/2000/svg" width="38.139" height="38.139" viewBox="0 0 38.139 38.139">
  <path id="Path_30" data-name="Path 30" d="M211.7,0a9.067,9.067,0,0,0-6.453,2.674L198.142,9.78a10.785,10.785,0,0,1,6.051.691l4.427-4.427a4.359,4.359,0,1,1,6.164,6.164l-7.968,7.968a4.465,4.465,0,0,1-6.164,0l-3.368,3.373a9.125,9.125,0,0,0,12.9,0l7.968-7.968A9.126,9.126,0,0,0,211.7,0Z" transform="translate(-182.689)" fill="#fff"/>
  <path id="Path_31" data-name="Path 31" d="M16.593,178l-4.385,4.385a4.359,4.359,0,1,1-6.164-6.164l7.968-7.968a4.465,4.465,0,0,1,6.164,0l3.368-3.373a9.346,9.346,0,0,0-12.9,0l-7.968,7.968a9.126,9.126,0,1,0,12.905,12.905l7.012-7.012a11.55,11.55,0,0,1-1.547.151A11.485,11.485,0,0,1,16.593,178Z" transform="translate(0 -150.293)" fill="#fff"/>
</svg>
